<svg width="22" height="19" viewBox="0 0 22 19" fill="none" xmlns="http://www.w3.org/2000/svg">
<path d="M21.8364 8.3175C21.0315 6.7175 17.8753 1.5 11.0002 1.5C4.12499 1.5 0.968823 6.7175 0.16397 8.3175C0.0559268 8.53192 0 8.76499 0 9.00083C0 9.23668 0.0559268 9.46975 0.16397 9.68417C0.968823 11.2825 4.12499 16.5 11.0002 16.5C17.8753 16.5 21.0315 11.2825 21.8364 9.6825C21.9442 9.46832 22 9.23554 22 9C22 8.76446 21.9442 8.53168 21.8364 8.3175ZM11.0002 14C10.797 14 10.5946 13.9898 10.394 13.9695C8.68819 13.7976 7.21087 12.5601 6.5 11V11C6.4861 10.9695 6.47256 10.9388 6.45939 10.9079C5.68667 9.09562 6.04221 6.82523 7.5 5.5V5.5V5.5C8.94457 4.18679 11.0314 3.76699 12.861 4.44795C12.9072 4.46514 12.9535 4.4825 13 4.5C13.2141 4.58063 13.4011 4.66682 13.5704 4.76045C15.09 5.60077 16 7.26355 16 9V9C15.9985 10.3257 15.5312 11.5626 14.5 12.5C13.4688 13.4374 12.4584 13.9987 11.0002 14Z" fill="#757575"/>
<path d="M11 12C12.6569 12 14 10.6569 14 9C14 7.34315 12.6569 6 11 6C9.34315 6 8 7.34315 8 9C8 10.6569 9.34315 12 11 12Z" fill="#757575"/>
</svg>
